# xmcd CD database file
#
# Track frame offsets:
#	150
#	26052
#	47822
#
# Disc length: 900 seconds
#
# Revision: 0
# Processed by: cddbd v1.5.1PL2 Copyright (c) Steve Scherf et al.
# Submitted via: CDex 1.51
#
DISCID=20038203
DTITLE=渡辺美里 - トマト/No Side
DYEAR=2005
DGENRE=JPop
TTITLE0=トマト
TTITLE1=No Side
TTITLE2=10 years(V20 Version)
EXTD=YEAR: 2005
EXTT0=
EXTT1=
EXTT2=
PLAYORDER=
